PathFileType	4	(X/Y/Z)	c:/Users/goper/Files/vsCode/490R/osim_files/A03/A03_Fast_06.trc
DataRate	CameraRate	NumFrames	NumMarkers	Units                	OrigDataRate	OrigDataStartFrame	OrigNumFrames
250.00	250.00	7	36	mm	250.0	1073	2145
                Frame#	Time	LPSIS			LASIS			LTH1			LTH2			LTH3			LTH4			LLFE			LMFE			LSH1			LSH2			LSH3			LSH4			LLMAL			LMMAL			LCAL			LMTP5			LTOE			LMTP1			RPSIS			RASIS			RTH1			RTH2			RTH3			RTH4			RLFE			RMFE			RSH1			RSH2			RSH3			RSH4			RLMAL			RMMAL			RCAL			RMTP1			RTOE			RMTP5		
		X1	Y1	Z1	X2	Y2	Z2	X3	Y3	Z3	X4	Y4	Z4	X5	Y5	Z5	X6	Y6	Z6	X7	Y7	Z7	X8	Y8	Z8	X9	Y9	Z9	X10	Y10	Z10	X11	Y11	Z11	X12	Y12	Z12	X13	Y13	Z13	X14	Y14	Z14	X15	Y15	Z15	X16	Y16	Z16	X17	Y17	Z17	X18	Y18	Z18	X19	Y19	Z19	X20	Y20	Z20	X21	Y21	Z21	X22	Y22	Z22	X23	Y23	Z23	X24	Y24	Z24	X25	Y25	Z25	X26	Y26	Z26	X27	Y27	Z27	X28	Y28	Z28	X29	Y29	Z29	X30	Y30	Z30	X31	Y31	Z31	X32	Y32	Z32	X33	Y33	Z33	X34	Y34	Z34	X35	Y35	Z35	X36	Y36	Z36

1073	4.28800	-619.24200	1068.96863	303.10751	-846.91919	981.79352	447.70639	-863.99500	634.14984	484.16360	-882.50330	595.49365	483.51547	-921.07709	652.93506	466.00949	-929.03052	609.72137	465.94531	-885.06470	548.48804	474.40402	-907.65723	549.89301	319.79092	-844.02173	462.64828	469.09973	-847.00500	414.25919	465.71835	-906.02673	457.61325	463.17267	-897.60889	411.17255	456.16364	-850.13617	94.40793	415.23120	-858.69818	104.70332	319.47351	-779.91504	81.55860	363.77441	-1001.58380	42.92518	422.51590	-1025.69275	73.76092	354.24246	-998.01801	54.89565	308.77069	-627.41168	1072.18274	220.74635	-866.76733	961.37415	151.71690	-828.67084	606.96350	69.65884	-829.03625	562.19733	74.46179	-889.98706	601.10553	77.84618	-882.86993	557.51501	81.66027	-846.58075	526.98187	89.70510	-871.95618	521.19727	214.42485	-771.92828	519.82025	81.64870	-740.71667	493.59332	68.01608	-806.61902	467.38174	84.11693	-766.54913	446.25183	70.70169	-499.97083	298.16772	108.69149	0.00000	0.00000	0.00000	-441.18234	329.93951	160.20018	-492.91934	120.32692	206.62155	-527.67914	105.31951	162.40933	-487.50323	120.84225	91.27777
1074	4.29200	-624.28961	1069.77429	303.05673	-850.96820	982.35394	448.22751	-866.41479	634.31000	484.39670	-884.67078	595.50806	483.67914	-923.68488	652.71094	466.31436	-931.78326	609.35291	467.45114	-886.99725	548.50153	474.55130	-909.57458	549.78796	319.92276	-845.58710	462.83401	469.23300	-848.31085	414.41763	465.79257	-907.59515	457.49414	463.26593	-898.97650	411.14349	456.25079	-850.20337	94.47244	415.20691	-858.86908	104.67522	319.43698	-779.98541	81.64160	363.74347	-1001.63110	42.84969	422.54276	-1025.56873	73.54198	354.15787	-998.11444	54.83911	308.72836	-632.59009	1072.97607	220.73918	-872.46906	963.01410	152.19772	-839.13623	608.35486	70.84847	-839.33630	564.03406	75.10142	-899.79132	603.35107	78.61034	-893.24878	559.87494	82.57106	-857.01898	529.01862	90.49561	-882.11243	523.56982	215.37146	-782.47040	521.59161	82.56081	-751.30646	495.24936	68.89513	-817.29633	469.29288	85.05791	-777.32697	447.98022	71.62126	-511.00558	298.90302	109.73489	0.00000	0.00000	0.00000	-451.61975	329.74951	161.02472	-506.49747	120.84270	207.29999	-541.52734	106.56557	163.17564	-501.34509	121.53828	91.90002
1075	4.29600	-629.27948	1070.60901	303.03256	-855.77130	983.17059	448.59976	-868.85333	634.41058	484.56909	-886.75311	595.49103	483.80734	-926.23987	652.46790	466.61203	-934.09174	608.72650	467.61548	-888.91205	548.51855	474.63870	-911.47919	549.73901	320.03320	-847.10150	462.95398	469.32053	-849.74976	414.57068	465.85526	-909.09363	457.42276	463.35132	-900.58563	411.23059	456.54520	-850.28625	94.57072	415.19489	-858.95880	104.72997	319.41608	-780.04211	81.75185	363.71268	-1001.56781	42.78417	422.52377	-1025.54382	73.37161	354.07205	-998.18591	54.78185	308.74869	-637.74164	1073.79663	220.74854	-878.05267	964.67957	152.59387	-848.86731	610.21759	71.46911	-849.52686	565.92261	75.74319	-909.61542	605.98083	79.57475	-903.46124	562.29028	83.41682	-867.40302	531.07062	91.29662	-892.27234	525.92902	216.39413	-792.88977	523.29565	83.47915	-761.88953	496.83014	69.80786	-827.97382	471.15817	85.97563	-788.09888	449.70685	72.59115	-522.24463	299.38153	110.74720	0.00000	0.00000	0.00000	-462.11218	328.86081	161.73830	-520.09515	121.15501	208.02016	-555.44910	107.48616	164.01418	-515.24811	121.95811	92.64005
1076	4.30000	-634.29944	1071.44434	303.05542	-860.44983	983.89087	448.91855	-871.24426	634.51379	484.73938	-888.85645	595.46216	483.89813	-928.72894	652.17303	466.88693	-936.26813	608.41028	467.83209	-890.72632	548.52051	474.67636	-913.30286	549.66705	320.10040	-848.44757	463.09393	469.44858	-851.05292	414.75766	465.89740	-910.65283	457.39029	463.42474	-901.82831	411.18997	456.54575	-850.33893	94.64571	415.16293	-859.07922	104.78874	319.34708	-780.11102	81.85526	363.63861	-1001.61615	42.74854	422.51898	-1025.90552	73.34060	354.12726	-998.28357	54.69046	308.69226	-642.83057	1074.61902	220.82039	-883.64655	966.23651	152.98845	-858.56000	612.08368	72.09512	-859.56720	567.81250	76.40369	-919.32593	608.48328	80.41819	-913.51495	564.70160	84.25909	-877.76019	533.16077	92.16531	-902.37970	528.37024	217.29750	-803.22815	524.95123	84.36790	-772.37170	498.28940	70.73280	-838.61884	473.03986	86.88216	-798.91229	451.32043	73.49090	-533.81104	299.46100	111.67557	0.00000	0.00000	0.00000	-472.92822	328.59872	162.71547	-533.98517	121.30093	208.92532	-569.57843	108.26891	164.95888	-529.29901	122.10175	93.43562
1077	4.30400	-639.31586	1072.25354	303.12750	-865.30670	984.56879	449.28867	-873.48688	634.56824	484.92908	-890.84729	595.42035	484.00284	-931.15216	651.87762	467.12079	-938.37030	608.03058	468.06174	-892.51422	548.50659	474.71078	-915.23499	549.59113	320.13535	-849.70941	463.23898	469.50644	-852.38477	414.88113	465.88199	-912.09528	457.32214	463.42810	-903.09332	411.17545	456.58130	-850.41644	94.75015	415.13901	-859.18079	104.81157	319.28152	-780.16528	81.94765	363.58649	-1001.66797	42.67558	422.49918	-1026.09290	73.32253	354.12027	-998.38055	54.60857	308.64493	-648.03424	1075.39905	220.91083	-889.36462	967.80365	153.30832	-868.07416	613.99792	72.73695	-869.56580	569.72540	77.08537	-928.85980	610.95825	81.17778	-923.47693	567.11609	85.04756	-887.96570	535.25043	92.95009	-912.44733	530.75311	218.18776	-813.46216	526.53046	85.26620	-782.77106	499.65973	71.64518	-849.21790	474.87463	87.74442	-809.58081	452.88773	74.36276	-545.46204	299.29645	112.60100	0.00000	0.00000	0.00000	-484.06223	327.56711	163.63260	-547.89465	121.25360	209.81828	-583.73224	108.74213	165.88335	-543.41229	121.99089	94.29814
1078	4.30800	-644.23749	1073.06311	303.30814	-870.10815	985.18896	449.59888	-875.73151	634.64636	485.01459	-892.84235	595.38007	484.05734	-933.50262	651.52081	467.31525	-940.42529	607.60657	468.30161	-894.25568	548.53302	474.70340	-917.11243	549.54358	320.11429	-851.03156	463.37128	469.56921	-853.69598	415.05032	465.88107	-913.54462	457.25238	463.43643	-904.31775	411.13492	456.59439	-850.47656	94.82866	415.07028	-859.30280	104.81423	319.25595	-780.24908	82.03705	363.55447	-1001.72742	42.61824	422.52719	-1026.31323	73.27085	354.15833	-998.45404	54.52302	308.65082	-653.15607	1076.18701	221.00162	-895.00195	969.34686	153.60689	-877.54779	615.85571	73.42213	-879.43628	571.64026	77.78580	-938.32733	613.43201	81.94011	-933.32947	569.54095	85.85027	-898.11267	537.35260	93.73341	-922.39777	533.20703	219.06117	-823.61786	527.98901	86.15259	-793.10791	500.93887	72.55897	-859.75983	476.68021	88.58846	-820.34937	454.36996	75.26679	-557.26123	298.87613	113.56547	0.00000	0.00000	0.00000	-495.29413	326.34149	164.48067	-561.98083	120.95406	210.79752	-598.12915	109.04270	166.87874	-557.64246	121.65818	95.20110
1079	4.31200	-649.22595	1073.88147	303.46246	-875.01953	985.80908	449.93152	-877.92407	634.68524	485.07172	-894.73560	595.29132	484.08798	-935.88910	651.08875	467.51947	-942.52191	607.24146	468.47855	-896.00940	548.56091	474.64301	-918.91492	549.45825	320.08521	-852.17572	463.54321	469.61661	-854.90576	415.21362	465.83679	-914.93640	457.19220	463.39935	-905.59558	411.14020	456.52310	-850.52875	94.93497	415.02115	-859.43787	104.84678	319.18979	-780.29236	82.15229	363.45117	-1001.75415	42.58271	422.51636	-1026.24426	73.13298	354.09543	-998.54956	54.47835	308.58099	-658.25848	1076.95581	221.17281	-900.47363	970.88898	153.91919	-886.89557	617.69989	74.07637	-889.15277	573.53339	78.46879	-947.70691	615.92889	82.69677	-943.12000	572.02411	86.65845	-908.12878	539.45715	94.52068	-932.33502	535.72058	219.93387	-833.67554	529.44452	86.98380	-803.38647	502.12393	73.44448	-870.29639	478.44055	89.45908	-830.99274	455.76373	76.10490	-569.02765	298.09308	114.59994	0.00000	0.00000	0.00000	-506.61945	324.84128	165.33209	-576.23798	120.49796	211.83537	-612.66772	109.12965	167.92189	-571.99823	121.08498	96.20454
